<svg width="48" height="48" viewBox="0 0 48 48" fill="none" xmlns="http://www.w3.org/2000/svg">
<g filter="url(#filter0_d_2_493)">
<rect x="8" y="7" width="32" height="32" rx="8" fill="white"/>
<path d="M18.6666 20.3333V27.6667C18.6666 28.0203 18.8071 28.3594 19.0571 28.6095C19.3072 28.8595 19.6463 29 19.9999 29H27.9999C28.3535 29 28.6927 28.8595 28.9427 28.6095C29.1928 28.3594 29.3333 28.0203 29.3333 27.6667V20.3333M22.6666 23H25.3333M17.9999 17H29.9999C30.3681 17 30.6666 17.2985 30.6666 17.6667V19.6667C30.6666 20.0349 30.3681 20.3333 29.9999 20.3333H17.9999C17.6317 20.3333 17.3333 20.0349 17.3333 19.6667V17.6667C17.3333 17.2985 17.6317 17 17.9999 17Z" stroke="black" stroke-width="2" stroke-linecap="round" stroke-linejoin="round"/>
</g>
<defs>
<filter id="filter0_d_2_493" x="0" y="0" width="48" height="48" filterUnits="userSpaceOnUse" color-interpolation-filters="sRGB">
<feFlood flood-opacity="0" result="BackgroundImageFix"/>
<feColorMatrix in="SourceAlpha" type="matrix" values="0 0 0 0 0 0 0 0 0 0 0 0 0 0 0 0 0 0 127 0" result="hardAlpha"/>
<feMorphology radius="4" operator="erode" in="SourceAlpha" result="effect1_dropShadow_2_493"/>
<feOffset dy="1"/>
<feGaussianBlur stdDeviation="6"/>
<feComposite in2="hardAlpha" operator="out"/>
<feColorMatrix type="matrix" values="0 0 0 0 0 0 0 0 0 0 0 0 0 0 0 0 0 0 0.25 0"/>
<feBlend mode="normal" in2="BackgroundImageFix" result="effect1_dropShadow_2_493"/>
<feBlend mode="normal" in="SourceGraphic" in2="effect1_dropShadow_2_493" result="shape"/>
</filter>
</defs>
</svg>
