<svg width="48" height="48" viewBox="0 0 48 48" fill="none" xmlns="http://www.w3.org/2000/svg">
<g filter="url(#filter0_d_2_490)">
<rect x="8" y="7" width="32" height="32" rx="8" fill="white"/>
<g clip-path="url(#clip0_2_490)">
<path d="M26.0001 18.3333L28.6668 21M30.1161 19.5413C30.4686 19.1889 30.6666 18.711 30.6667 18.2126C30.6668 17.7141 30.4688 17.2361 30.1165 16.8837C29.7641 16.5312 29.2861 16.3331 28.7877 16.3331C28.2893 16.333 27.8113 16.5309 27.4588 16.8833L18.5615 25.7827C18.4067 25.937 18.2922 26.127 18.2281 26.336L17.3475 29.2373C17.3302 29.295 17.3289 29.3562 17.3437 29.4146C17.3585 29.4729 17.3887 29.5261 17.4313 29.5687C17.4739 29.6112 17.5272 29.6414 17.5856 29.656C17.6439 29.6707 17.7052 29.6693 17.7628 29.652L20.6648 28.772C20.8736 28.7085 21.0636 28.5947 21.2181 28.4407L30.1161 19.5413Z" stroke="black" stroke-width="2" stroke-linecap="round" stroke-linejoin="round"/>
</g>
</g>
<defs>
<filter id="filter0_d_2_490" x="0" y="0" width="48" height="48" filterUnits="userSpaceOnUse" color-interpolation-filters="sRGB">
<feFlood flood-opacity="0" result="BackgroundImageFix"/>
<feColorMatrix in="SourceAlpha" type="matrix" values="0 0 0 0 0 0 0 0 0 0 0 0 0 0 0 0 0 0 127 0" result="hardAlpha"/>
<feMorphology radius="4" operator="erode" in="SourceAlpha" result="effect1_dropShadow_2_490"/>
<feOffset dy="1"/>
<feGaussianBlur stdDeviation="6"/>
<feComposite in2="hardAlpha" operator="out"/>
<feColorMatrix type="matrix" values="0 0 0 0 0 0 0 0 0 0 0 0 0 0 0 0 0 0 0.25 0"/>
<feBlend mode="normal" in2="BackgroundImageFix" result="effect1_dropShadow_2_490"/>
<feBlend mode="normal" in="SourceGraphic" in2="effect1_dropShadow_2_490" result="shape"/>
</filter>
<clipPath id="clip0_2_490">
<rect width="16" height="16" fill="white" transform="translate(16 15)"/>
</clipPath>
</defs>
</svg>
