<svg width="550" height="650" viewBox="0 0 550 650" fill="none" xmlns="http://www.w3.org/2000/svg">
<path d="M0 0H512C532.987 0 550 17.0132 550 38V612C550 632.987 532.987 650 512 650H0V0Z" fill="#007AFF" fill-opacity="0.19"/>
<path d="M294.625 331.875L288.067 325.317C287.27 324.52 286.189 324.073 285.062 324.073C283.936 324.073 282.855 324.52 282.058 325.317L262.75 344.625M260.625 306.375H290.375C292.722 306.375 294.625 308.278 294.625 310.625V340.375C294.625 342.722 292.722 344.625 290.375 344.625H260.625C258.278 344.625 256.375 342.722 256.375 340.375V310.625C256.375 308.278 258.278 306.375 260.625 306.375ZM273.375 319.125C273.375 321.472 271.472 323.375 269.125 323.375C266.778 323.375 264.875 321.472 264.875 319.125C264.875 316.778 266.778 314.875 269.125 314.875C271.472 314.875 273.375 316.778 273.375 319.125Z" stroke="#007AFF" stroke-width="2" stroke-linecap="round" stroke-linejoin="round"/>
</svg>
